<svg xmlns="http://www.w3.org/2000/svg" xmlns:xlink="http://www.w3.org/1999/xlink" width="328" height="148" viewBox="0 0 246 111" version="1.2"><defs><symbol overflow="visible" id="c"><path d="M1.5-11.203h4.906c1.188 0 2.242.234 3.172.703.926.46 1.645 1.117 2.156 1.969.52.844.782 1.824.782 2.937 0 1.106-.262 2.086-.782 2.938-.511.844-1.23 1.5-2.156 1.969-.93.46-1.984.687-3.172.687H1.5zm4.797 9.437c.82 0 1.547-.156 2.172-.468a3.324 3.324 0 001.437-1.344c.344-.582.516-1.254.516-2.016 0-.77-.172-1.445-.516-2.031A3.347 3.347 0 008.47-8.969c-.625-.312-1.352-.469-2.172-.469H3.578v7.672zm0 0"/></symbol><symbol overflow="visible" id="d"><path d="M6.734.156c-1.136 0-2.168-.242-3.093-.734a5.534 5.534 0 01-2.157-2.063c-.523-.882-.78-1.867-.78-2.953 0-1.093.257-2.078.78-2.953a5.426 5.426 0 012.157-2.062c.925-.5 1.957-.75 3.093-.75 1.145 0 2.176.25 3.094.75a5.493 5.493 0 012.156 2.046c.52.876.782 1.868.782 2.97 0 1.093-.262 2.077-.782 2.952A5.587 5.587 0 019.828-.578c-.918.492-1.95.734-3.094.734zm0-1.812c.75 0 1.422-.164 2.016-.5a3.753 3.753 0 001.406-1.422 3.99 3.99 0 00.516-2.016c0-.75-.172-1.426-.516-2.031A3.684 3.684 0 008.75-9.031c-.594-.332-1.266-.5-2.016-.5s-1.421.168-2.015.5a3.684 3.684 0 00-1.407 1.406 4.038 4.038 0 00-.515 2.031c0 .742.172 1.414.515 2.016A3.753 3.753 0 004.72-2.156c.593.336 1.265.5 2.015.5zm0 0"/></symbol><symbol overflow="visible" id="e"><path d="M11.453-11.203V0H9.75L3.562-7.578V0H1.5v-11.203h1.719L9.39-3.61v-7.594zm0 0"/></symbol><symbol overflow="visible" id="f"><path d="M8.766-2.594H3.172L2.062 0h-2.14l5.031-11.203h2.063L12.062 0H9.892zm-.688-1.625l-2.11-4.906-2.093 4.906zm0 0"/></symbol><symbol overflow="visible" id="g"><path d="M3.781-9.438H.062v-1.765h9.5v1.765H5.86V0H3.781zm0 0"/></symbol><symbol overflow="visible" id="h"><path d="M9.438-5.828c.624.21 1.113.555 1.468 1.031.364.469.547 1.055.547 1.75 0 .98-.375 1.735-1.125 2.266C9.586-.258 8.504 0 7.078 0H1.5v-11.203h5.25c1.32 0 2.336.262 3.047.781.719.524 1.078 1.235 1.078 2.14 0 .555-.133 1.044-.39 1.47-.25.43-.602.757-1.047.984zm-5.86-3.734v3.078h2.953c.719 0 1.27-.13 1.657-.391.394-.258.593-.64.593-1.14 0-.508-.199-.895-.594-1.157-.386-.258-.937-.39-1.656-.39zm3.36 7.937c1.613 0 2.421-.54 2.421-1.625 0-1.07-.808-1.61-2.421-1.61h-3.36v3.235zm0 0"/></symbol><symbol overflow="visible" id="i"><path d="M6.688.156c-1.137 0-2.165-.242-3.079-.734a5.572 5.572 0 01-2.14-2.063C.957-3.516.703-4.5.703-5.594c0-1.101.258-2.093.781-2.968a5.441 5.441 0 012.157-2.047c.914-.5 1.937-.75 3.062-.75.914 0 1.754.164 2.516.484a4.994 4.994 0 011.922 1.39L9.797-8.218c-.813-.875-1.813-1.312-3-1.312-.774 0-1.461.168-2.063.5a3.645 3.645 0 00-1.421 1.406c-.344.594-.516 1.273-.516 2.031 0 .75.172 1.43.515 2.032a3.753 3.753 0 001.422 1.406c.602.336 1.29.5 2.063.5 1.187 0 2.187-.442 3-1.328L11.14-1.72A5.037 5.037 0 019.203-.312C8.441 0 7.602.156 6.688.156zm0 0"/></symbol><symbol overflow="visible" id="j"><path d="M10.203-1.766V0H.656v-1.39L7.25-9.438H.766v-1.766H10v1.39L3.406-1.765zm0 0"/></symbol><symbol overflow="visible" id="k"><path d="M5.36-4.688L3.577-2.859V0H1.5v-11.203h2.078v5.75l5.547-5.75h2.328L6.75-6.188l5 6.188H9.312zm0 0"/></symbol><symbol overflow="visible" id="l"><path d="M17.875-11.203L14.156 0h-2.203L9.188-8.281 6.374 0H4.141L.437-11.203h2.157l2.781 8.515 2.89-8.515h1.922l2.844 8.562 2.86-8.562zm0 0"/></symbol><symbol overflow="visible" id="m"><path d="M4.969.156a8.833 8.833 0 01-2.5-.36C1.664-.453 1.03-.78.563-1.187l.718-1.609c.457.367 1.02.664 1.688.89.664.231 1.332.345 2 .345.832 0 1.453-.133 1.86-.407.413-.27.624-.625.624-1.062 0-.313-.117-.57-.344-.781a2.45 2.45 0 00-.875-.485 14.406 14.406 0 00-1.437-.406c-.856-.207-1.547-.41-2.078-.61a3.383 3.383 0 01-1.36-.937C.984-6.688.797-7.273.797-8.016c0-.613.164-1.175.5-1.687.344-.508.851-.91 1.531-1.203.676-.301 1.504-.453 2.485-.453.687 0 1.359.09 2.015.265a5.912 5.912 0 011.719.719L8.39-8.75a6.67 6.67 0 00-1.547-.656 5.887 5.887 0 00-1.547-.219c-.824 0-1.438.14-1.844.422-.398.273-.594.637-.594 1.094 0 .324.114.586.344.78.227.2.52.36.875.485.352.117.832.246 1.438.39.832.2 1.515.403 2.046.61.54.211 1 .528 1.375.953.376.43.563 1 .563 1.72 0 .624-.168 1.187-.5 1.687-.336.5-.844.902-1.531 1.203-.68.289-1.512.437-2.5.437zm0 0"/></symbol><symbol overflow="visible" id="o"><path d="M2.234-5.906v2.125h3.391v1.094h-3.39V0H.937v-7h5.109v1.094zm0 0"/></symbol><symbol overflow="visible" id="p"><path d="M4.203.094c-.71 0-1.351-.149-1.922-.453a3.5 3.5 0 01-1.36-1.297A3.562 3.562 0 01.438-3.5c0-.676.16-1.29.485-1.844.332-.55.785-.976 1.36-1.281.57-.313 1.21-.469 1.921-.469.719 0 1.363.157 1.938.469.57.305 1.02.73 1.343 1.281.332.543.5 1.157.5 1.844 0 .688-.168 1.309-.5 1.86A3.477 3.477 0 016.141-.36c-.575.305-1.22.454-1.938.454zm0-1.14c.469 0 .89-.102 1.266-.313.375-.207.664-.5.875-.875.218-.375.328-.797.328-1.266s-.11-.89-.328-1.266c-.211-.375-.5-.664-.875-.875a2.575 2.575 0 00-1.266-.312c-.46 0-.875.105-1.25.312-.375.211-.672.5-.89.875-.211.375-.313.797-.313 1.266s.102.89.313 1.266c.218.375.515.668.89.875.375.21.79.312 1.25.312zm0 0"/></symbol><symbol overflow="visible" id="q"><path d="M2.36-5.906H.046V-7h5.937v1.094H3.656V0H2.36zm0 0"/></symbol><symbol overflow="visible" id="r"><path d="M5.719-3.578h1.234v2.781a4.01 4.01 0 01-1.266.672c-.48.145-.976.219-1.484.219-.71 0-1.351-.149-1.922-.453a3.547 3.547 0 01-1.36-1.282C.599-2.19.438-2.812.438-3.5s.16-1.3.485-1.844c.332-.55.785-.976 1.36-1.281a4.066 4.066 0 011.952-.469c.582 0 1.114.102 1.594.297.477.188.883.469 1.219.844l-.828.797a2.62 2.62 0 00-1.922-.797c-.5 0-.945.105-1.328.312-.375.2-.672.485-.89.86A2.502 2.502 0 001.75-3.5c0 .469.11.89.328 1.266.219.367.516.656.89.875.384.21.821.312 1.313.312.54 0 1.02-.117 1.438-.36zm0 0"/></symbol><symbol overflow="visible" id="s"><path d="M5.516 0L4.094-2.047h-1.86V0H.938v-7h2.875c.613 0 1.144.102 1.593.297.446.2.79.484 1.032.86.238.374.359.82.359 1.327 0 .532-.133.993-.39 1.375-.25.375-.618.657-1.095.844L6.923 0zm-.032-4.516c0-.445-.148-.789-.437-1.03-.293-.24-.719-.36-1.281-.36H2.234v2.797h1.532c.562 0 .988-.118 1.28-.36.29-.25.438-.597.438-1.047zm0 0"/></symbol><symbol overflow="visible" id="t"><path d="M5.484-1.625h-3.5L1.297 0H-.047l3.14-7h1.282l3.172 7h-1.36zm-.437-1.016L3.734-5.703 2.422-2.641zm0 0"/></symbol><symbol overflow="visible" id="u"><path d="M.938-7h1.296v7H.938zm0 0"/></symbol><clipPath id="a"><path d="M64.617 131.879H124V191H64.617zm0 0"/></clipPath><clipPath id="b"><path d="M251 184h59.617v58.879H251zm0 0"/></clipPath></defs><g clip-path="url(#a)" transform="translate(-64.617 -131.879)"><path d="M67.035 190.234h-2.418V131.66h58.63v2.414H67.034zm0 0" fill="#fff"/></g><g clip-path="url(#b)" transform="translate(-64.617 -131.879)"><path d="M310.617 243.371h-58.629v-2.418H308.2v-56.156h2.418zm0 0" fill="#fff"/></g><use xlink:href="#c" x="145.656" y="175.2" width="100%" height="100%" fill="#fff" transform="translate(-64.617 -131.879)"/><use xlink:href="#d" x="160.937" y="175.2" width="100%" height="100%" fill="#ffde57" transform="translate(-64.617 -131.879)"/><use xlink:href="#e" x="176.476" y="175.2" width="100%" height="100%" fill="#fff" transform="translate(-64.617 -131.879)"/><use xlink:href="#f" x="191.513" y="175.2" width="100%" height="100%" fill="#fff" transform="translate(-64.617 -131.879)"/><use xlink:href="#g" x="205.574" y="175.2" width="100%" height="100%" fill="#fff" transform="translate(-64.617 -131.879)"/><use xlink:href="#f" x="217.284" y="175.2" width="100%" height="100%" fill="#fff" transform="translate(-64.617 -131.879)"/><use xlink:href="#h" x="112.351" y="196.95" width="100%" height="100%" fill="#fff" transform="translate(-64.617 -131.879)"/><use xlink:href="#d" x="126.604" y="196.95" width="100%" height="100%" fill="#fff" transform="translate(-64.617 -131.879)"/><use xlink:href="#i" x="142.153" y="196.95" width="100%" height="100%" fill="#fff" transform="translate(-64.617 -131.879)"/><use xlink:href="#j" x="155.862" y="196.95" width="100%" height="100%" fill="#fff" transform="translate(-64.617 -131.879)"/><use xlink:href="#k" x="168.548" y="196.95" width="100%" height="100%" fill="#fff" transform="translate(-64.617 -131.879)"/><use xlink:href="#d" x="182.289" y="196.95" width="100%" height="100%" fill="#fff" transform="translate(-64.617 -131.879)"/><use xlink:href="#l" x="197.838" y="196.95" width="100%" height="100%" fill="#fff" transform="translate(-64.617 -131.879)"/><use xlink:href="#m" x="218.217" y="196.95" width="100%" height="100%" fill="#fff" transform="translate(-64.617 -131.879)"/><use xlink:href="#k" x="230.359" y="196.95" width="100%" height="100%" fill="#fff" transform="translate(-64.617 -131.879)"/><use xlink:href="#f" x="244.1" y="196.95" width="100%" height="100%" fill="#fff" transform="translate(-64.617 -131.879)"/><use xlink:href="#n" x="258.156" y="196.95" width="100%" height="100%" fill="#fff" transform="translate(-64.617 -131.879)"/><use xlink:href="#o" x="147.613" y="212.7" width="100%" height="100%" fill="#fff" transform="translate(-64.617 -131.879)"/><use xlink:href="#p" x="155.281" y="212.7" width="100%" height="100%" fill="#fff" transform="translate(-64.617 -131.879)"/><use xlink:href="#q" x="164.997" y="212.7" width="100%" height="100%" fill="#fff" transform="translate(-64.617 -131.879)"/><use xlink:href="#p" x="172.315" y="212.7" width="100%" height="100%" fill="#fff" transform="translate(-64.617 -131.879)"/><use xlink:href="#r" x="182.032" y="212.7" width="100%" height="100%" fill="#fff" transform="translate(-64.617 -131.879)"/><use xlink:href="#s" x="191.048" y="212.7" width="100%" height="100%" fill="#fff" transform="translate(-64.617 -131.879)"/><use xlink:href="#t" x="199.656" y="212.7" width="100%" height="100%" fill="#fff" transform="translate(-64.617 -131.879)"/><use xlink:href="#o" x="208.443" y="212.7" width="100%" height="100%" fill="#fff" transform="translate(-64.617 -131.879)"/><use xlink:href="#u" x="216.11" y="212.7" width="100%" height="100%" fill="#fff" transform="translate(-64.617 -131.879)"/><use xlink:href="#t" x="220.599" y="212.7" width="100%" height="100%" fill="#fff" transform="translate(-64.617 -131.879)"/></svg>